<?xml version="1.0" standalone="no"?>
<!DOCTYPE svg PUBLIC "-//W3C//DTD SVG 20010904//EN"
 "http://www.w3.org/TR/2001/REC-SVG-20010904/DTD/svg10.dtd">
<svg version="1.0" xmlns="http://www.w3.org/2000/svg"
 width="500.000000pt" height="500.000000pt" viewBox="0 0 500.000000 500.000000"
 preserveAspectRatio="xMidYMid meet">

<g transform="translate(0.000000,500.000000) scale(0.100000,-0.100000)"
fill="#000000" stroke="none">
<path d="M1722 3823 c4 -170 16 -209 88 -287 87 -94 201 -120 515 -114 l160 3
3 43 c3 38 1 42 -20 42 -33 0 -48 18 -48 57 l0 33 248 -2 247 -3 13 -75 c18
-102 11 -351 -11 -402 l-16 -38 -240 0 -241 0 0 33 c0 39 15 57 47 57 20 0 23
5 23 39 l0 38 -52 7 c-78 9 -272 7 -358 -4 -137 -18 -114 27 -230 -448 -56
-230 -108 -441 -115 -470 l-13 -53 197 3 c269 4 259 -4 331 262 l45 166 321 0
c316 0 323 0 410 26 118 34 195 76 274 150 124 118 192 274 193 449 2 291
-158 513 -438 606 -70 24 -70 24 -703 27 l-634 3 4 -148z"/>
<path d="M2565 3385 c-39 -38 -28 -93 23 -114 82 -34 141 87 62 129 -31 16
-59 12 -85 -15z"/>
<path d="M1245 1841 c-57 -24 -81 -98 -45 -144 18 -22 29 -27 66 -27 37 0 51
6 75 29 74 75 2 182 -96 142z"/>
<path d="M490 1783 c0 -5 -23 -167 -50 -362 -28 -195 -50 -362 -50 -372 0 -17
9 -19 79 -19 l78 0 7 56 c3 31 11 89 17 130 l11 74 122 0 c145 0 205 15 263
64 58 50 87 122 88 216 0 121 -46 185 -155 209 -52 12 -410 15 -410 4z m378
-163 c26 -25 30 -86 7 -130 -25 -48 -61 -60 -175 -60 l-101 0 6 33 c9 57 25
162 25 170 0 4 49 7 108 7 95 0 111 -2 130 -20z"/>
<path d="M3320 1787 c0 -2 48 -104 106 -228 l106 -224 -17 -130 c-9 -71 -19
-140 -22 -152 -5 -22 -3 -23 75 -23 93 0 81 -21 108 175 l17 120 174 233 173
232 -94 0 -95 0 -112 -156 -112 -156 -66 156 -66 156 -87 0 c-49 0 -88 -1 -88
-3z"/>
<path d="M1623 1572 c-67 -24 -118 -64 -154 -121 -85 -133 -73 -301 25 -376
70 -53 185 -69 283 -40 51 15 133 67 133 85 0 6 -15 27 -33 46 l-33 36 -43
-22 c-59 -30 -138 -37 -179 -16 -35 18 -62 52 -62 78 0 17 15 18 199 18 l200
0 6 54 c15 114 -27 206 -110 246 -65 31 -163 37 -232 12z m172 -137 c14 -13
25 -36 25 -50 l0 -25 -120 0 c-66 0 -120 3 -120 8 0 4 7 18 16 31 45 63 153
83 199 36z"/>
<path d="M2799 1576 c-96 -34 -157 -101 -191 -208 -57 -186 38 -348 204 -348
50 0 118 26 150 57 l28 27 0 -37 0 -37 73 0 74 0 36 258 c20 141 37 265 37
275 0 15 -10 17 -75 17 l-75 0 0 -33 c0 -19 -2 -36 -5 -39 -3 -3 -20 9 -38 27
-52 52 -142 69 -218 41z m197 -160 c28 -28 34 -41 34 -77 0 -54 -33 -122 -72
-151 -17 -11 -52 -23 -78 -26 -90 -8 -137 42 -128 137 9 89 75 151 162 151 41
0 53 -5 82 -34z"/>
<path d="M4209 1576 c-96 -34 -157 -101 -191 -208 -57 -186 38 -348 204 -348
50 0 118 26 150 57 l28 27 0 -37 0 -37 73 0 74 0 36 258 c20 141 37 265 37
275 0 15 -10 17 -75 17 l-75 0 0 -33 c0 -19 -2 -36 -5 -39 -3 -3 -20 9 -38 27
-52 52 -142 69 -218 41z m197 -160 c28 -28 34 -41 34 -77 0 -54 -33 -122 -72
-151 -17 -11 -52 -23 -78 -26 -90 -8 -137 42 -128 137 9 89 75 151 162 151 41
0 53 -5 82 -34z"/>
<path d="M1165 1538 c-3 -24 -20 -148 -39 -275 l-33 -233 77 0 77 0 36 258
c20 141 37 265 37 275 0 15 -10 17 -74 17 l-75 0 -6 -42z"/>
<path d="M2085 1543 c-4 -21 -9 -50 -11 -65 l-6 -28 129 0 128 0 -105 -107
c-206 -212 -203 -207 -210 -263 l-6 -50 233 0 c221 0 233 1 233 19 0 10 3 39
6 65 l7 46 -134 0 -133 0 157 158 c131 132 157 163 157 188 0 16 3 39 6 52 l6
22 -225 0 -226 0 -6 -37z"/>
</g>
</svg>
