<svg version="1.0" xmlns="http://www.w3.org/2000/svg"
     width="500" height="500" viewBox="0 0 500 500"
     preserveAspectRatio="xMidYMid meet">
    <g transform="translate(0,500) scale(0.1,-0.1)" fill="currentColor" stroke="none">
        <path d="M240 4317 c0 -295 2 -342 19 -408 65 -253 261 -475 501 -568 94 -37
        148 -46 390 -68 212 -19 856 -25 983 -10 l67 9 0 104 0 104 -61 0 c-54 0 -64
        3 -90 29 -28 28 -29 33 -29 120 l0 91 624 0 623 0 16 -57 c83 -296 81 -975 -3
        -1196 -11 -29 -24 -57 -28 -64 -6 -9 -157 -14 -620 -19 l-612 -7 0 92 c0 84 2
        94 25 116 21 22 33 25 90 25 l65 0 0 109 0 109 -205 7 c-305 11 -787 1 -915
        -20 -99 -15 -233 -54 -251 -72 -7 -7 -550 -2203 -584 -2361 l-7 -32 459 0
        c477 0 512 3 592 45 52 27 130 104 156 155 12 25 76 237 140 473 l118 427 813
        0 c896 0 868 -2 1089 65 295 90 518 226 726 442 201 210 331 461 401 778 19
        87 22 129 22 325 0 194 -3 239 -22 325 -73 334 -204 578 -431 805 -222 221
        -445 342 -789 428 l-107 27 -1582 2 -1583 3 0 -333z"/>
        <path d="M2412 3209 c-134 -68 -132 -263 4 -329 60 -29 136 -24 192 12 103 69
        103 237 0 306 -55 36 -137 41 -196 11z"/>
    </g>
</svg>